<svg 
    xmlns:xlink="http://www.w3.org/1999/xlink" 
    id="wave"
    style="transform:rotate(0deg); transition: 0.3s"
    viewBox="0 0 1440 490"
    version="1.1"
    xmlns="http://www.w3.org/2000/svg">
    <defs>
        <linearGradient 
            id="sw-gradient-0" 
            x1="0" 
            x2="0"
            y1="1"
            y2="0">
                <stop 
                    stop-color="rgba(0, 255, 237.724, 1)" 
                    offset="0%"/>
                <stop 
                    stop-color="rgba(53.212, 128.212, 166.632, 1)" 
                    offset="100%"/>
        </linearGradient>
    </defs>
    <path 
        style="transform:translate(0, 0px); opacity:1" 
        fill="url(#sw-gradient-0)" 
        d="M0,49L34.3,65.3C68.6,82,137,114,206,163.3C274.3,212,343,278,411,261.3C480,245,549,147,617,163.3C685.7,180,754,310,823,343C891.4,376,960,310,1029,236.8C1097.1,163,1166,82,1234,40.8C1302.9,0,1371,0,1440,49C1508.6,98,1577,196,1646,245C1714.3,294,1783,294,1851,261.3C1920,229,1989,163,2057,147C2125.7,131,2194,163,2263,187.8C2331.4,212,2400,229,2469,236.8C2537.1,245,2606,245,2674,228.7C2742.9,212,2811,180,2880,187.8C2948.6,196,3017,245,3086,269.5C3154.3,294,3223,294,3291,269.5C3360,245,3429,196,3497,171.5C3565.7,147,3634,147,3703,187.8C3771.4,229,3840,310,3909,302.2C3977.1,294,4046,196,4114,130.7C4182.9,65,4251,33,4320,32.7C4388.6,33,4457,65,4526,130.7C4594.3,196,4663,294,4731,343C4800,392,4869,392,4903,392L4937.1,392L4937.1,490L4902.9,490C4868.6,490,4800,490,4731,490C4662.9,490,4594,490,4526,490C4457.1,490,4389,490,4320,490C4251.4,490,4183,490,4114,490C4045.7,490,3977,490,3909,490C3840,490,3771,490,3703,490C3634.3,490,3566,490,3497,490C3428.6,490,3360,490,3291,490C3222.9,490,3154,490,3086,490C3017.1,490,2949,490,2880,490C2811.4,490,2743,490,2674,490C2605.7,490,2537,490,2469,490C2400,490,2331,490,2263,490C2194.3,490,2126,490,2057,490C1988.6,490,1920,490,1851,490C1782.9,490,1714,490,1646,490C1577.1,490,1509,490,1440,490C1371.4,490,1303,490,1234,490C1165.7,490,1097,490,1029,490C960,490,891,490,823,490C754.3,490,686,490,617,490C548.6,490,480,490,411,490C342.9,490,274,490,206,490C137.1,490,69,490,34,490L0,490Z"/>
</svg>